# xmcd
#
# Track frame offsets:
#	150
#	14805
#	38900
#	54245
#	68970
#	85247
#	97250
#	111700
#	128650
#	142155
#	155940
#	172570
#	192217
#	206882
#
# Disc length: 2959 seconds
#
# Revision: 1
# Processed by: cddbd v1.4PL0 Copyright (c) Steve Scherf et al.
# Submitted via: audiograbber 1.80.04
#
DISCID=d40b8d0e
DTITLE=Hats Off... - To Hank Williams
DYEAR=1997
DGENRE=Country
TTITLE0=Pan American
TTITLE1=Ramblin' Man
TTITLE2=You Win Again
TTITLE3=Hey Good Lookin'
TTITLE4=Kaw-Liga
TTITLE5=Your Cheatin' Heart
TTITLE6=Jambalaya
TTITLE7=I Can't Help It (If I'm Still in Love With You)
TTITLE8=Take These Chains (From My Heart)
TTITLE9=Mind Your Own Business
TTITLE10=I Saw the Light
TTITLE11=I'm So Lonesome I Could Cry
TTITLE12=Lost Highway
TTITLE13=Settin' the Woods on Fire
EXTD=Country instrumental album consisting of the songs of Hank Williams.
EXTT0=
EXTT1=
EXTT2=
EXTT3=
EXTT4=
EXTT5=
EXTT6=
EXTT7=
EXTT8=
EXTT9=
EXTT10=
EXTT11=
EXTT12=
EXTT13=
PLAYORDER=
